<mxfile host="app.diagrams.net" agent="Mozilla/5.0 (Windows NT 10.0; Win64; x64) AppleWebKit/537.36 (KHTML, like Gecko) Chrome/141.0.0.0 Safari/537.36" version="28.2.7">
  <diagram name="Página-1" id="_U1Y64qAx5Fcumad58PA">
    <mxGraphModel grid="1" page="1" gridSize="10" guides="1" tooltips="1" connect="1" arrows="1" fold="1" pageScale="1" pageWidth="827" pageHeight="1169" math="0" shadow="0">
      <root>
        <mxCell id="0" />
        <mxCell id="1" parent="0" />
        <mxCell id="VpNsW9h_GRBeXpe7Pvj6-1" value="VIVERO" style="whiteSpace=wrap;html=1;align=center;" vertex="1" parent="1">
          <mxGeometry x="130" y="240" width="100" height="40" as="geometry" />
        </mxCell>
        <mxCell id="VpNsW9h_GRBeXpe7Pvj6-2" value="id_vivero" style="ellipse;whiteSpace=wrap;html=1;align=center;fontStyle=4;" vertex="1" parent="1">
          <mxGeometry x="20" y="60" width="100" height="40" as="geometry" />
        </mxCell>
        <mxCell id="VpNsW9h_GRBeXpe7Pvj6-3" value="nombre" style="ellipse;whiteSpace=wrap;html=1;align=center;" vertex="1" parent="1">
          <mxGeometry x="140" y="60" width="100" height="40" as="geometry" />
        </mxCell>
        <mxCell id="VpNsW9h_GRBeXpe7Pvj6-4" value="coordenadas" style="ellipse;whiteSpace=wrap;html=1;align=center;" vertex="1" parent="1">
          <mxGeometry x="240" y="120" width="100" height="40" as="geometry" />
        </mxCell>
        <mxCell id="VpNsW9h_GRBeXpe7Pvj6-6" value="latitud" style="ellipse;whiteSpace=wrap;html=1;align=center;" vertex="1" parent="1">
          <mxGeometry x="250" y="40" width="100" height="40" as="geometry" />
        </mxCell>
        <mxCell id="VpNsW9h_GRBeXpe7Pvj6-7" value="longitud" style="ellipse;whiteSpace=wrap;html=1;align=center;" vertex="1" parent="1">
          <mxGeometry x="364" y="50" width="100" height="40" as="geometry" />
        </mxCell>
        <mxCell id="VpNsW9h_GRBeXpe7Pvj6-8" value="dirección" style="ellipse;whiteSpace=wrap;html=1;align=center;" vertex="1" parent="1">
          <mxGeometry x="350" y="150" width="100" height="40" as="geometry" />
        </mxCell>
        <mxCell id="VpNsW9h_GRBeXpe7Pvj6-9" value="" style="endArrow=none;html=1;rounded=0;exitX=0.5;exitY=1;exitDx=0;exitDy=0;entryX=0.5;entryY=0;entryDx=0;entryDy=0;" edge="1" parent="1" source="VpNsW9h_GRBeXpe7Pvj6-32" target="VpNsW9h_GRBeXpe7Pvj6-31">
          <mxGeometry relative="1" as="geometry">
            <mxPoint x="540" y="470" as="sourcePoint" />
            <mxPoint x="680" y="610" as="targetPoint" />
          </mxGeometry>
        </mxCell>
        <mxCell id="VpNsW9h_GRBeXpe7Pvj6-10" value="" style="endArrow=none;html=1;rounded=0;exitX=0.5;exitY=1;exitDx=0;exitDy=0;entryX=0.5;entryY=0;entryDx=0;entryDy=0;" edge="1" parent="1" source="VpNsW9h_GRBeXpe7Pvj6-3" target="VpNsW9h_GRBeXpe7Pvj6-1">
          <mxGeometry relative="1" as="geometry">
            <mxPoint x="140" y="140" as="sourcePoint" />
            <mxPoint x="280" y="250" as="targetPoint" />
          </mxGeometry>
        </mxCell>
        <mxCell id="VpNsW9h_GRBeXpe7Pvj6-11" value="" style="endArrow=none;html=1;rounded=0;exitX=0;exitY=0.5;exitDx=0;exitDy=0;entryX=0.5;entryY=0;entryDx=0;entryDy=0;" edge="1" parent="1" source="VpNsW9h_GRBeXpe7Pvj6-8" target="VpNsW9h_GRBeXpe7Pvj6-1">
          <mxGeometry relative="1" as="geometry">
            <mxPoint x="490" y="175" as="sourcePoint" />
            <mxPoint x="390" y="285" as="targetPoint" />
          </mxGeometry>
        </mxCell>
        <mxCell id="VpNsW9h_GRBeXpe7Pvj6-12" value="" style="endArrow=none;html=1;rounded=0;exitX=0.5;exitY=1;exitDx=0;exitDy=0;entryX=0.5;entryY=0;entryDx=0;entryDy=0;" edge="1" parent="1" source="VpNsW9h_GRBeXpe7Pvj6-4" target="VpNsW9h_GRBeXpe7Pvj6-1">
          <mxGeometry relative="1" as="geometry">
            <mxPoint x="350" y="200" as="sourcePoint" />
            <mxPoint x="250" y="310" as="targetPoint" />
          </mxGeometry>
        </mxCell>
        <mxCell id="VpNsW9h_GRBeXpe7Pvj6-13" value="" style="endArrow=none;html=1;rounded=0;entryX=0.5;entryY=1;entryDx=0;entryDy=0;exitX=0.5;exitY=0;exitDx=0;exitDy=0;" edge="1" parent="1" source="VpNsW9h_GRBeXpe7Pvj6-4" target="VpNsW9h_GRBeXpe7Pvj6-7">
          <mxGeometry relative="1" as="geometry">
            <mxPoint x="330" y="180" as="sourcePoint" />
            <mxPoint x="490" y="180" as="targetPoint" />
          </mxGeometry>
        </mxCell>
        <mxCell id="VpNsW9h_GRBeXpe7Pvj6-14" value="" style="endArrow=none;html=1;rounded=0;entryX=0.5;entryY=1;entryDx=0;entryDy=0;exitX=0.5;exitY=0;exitDx=0;exitDy=0;" edge="1" parent="1" source="VpNsW9h_GRBeXpe7Pvj6-4" target="VpNsW9h_GRBeXpe7Pvj6-6">
          <mxGeometry relative="1" as="geometry">
            <mxPoint x="430" y="150" as="sourcePoint" />
            <mxPoint x="510" y="120" as="targetPoint" />
          </mxGeometry>
        </mxCell>
        <mxCell id="VpNsW9h_GRBeXpe7Pvj6-15" value="ZONA" style="whiteSpace=wrap;html=1;align=center;" vertex="1" parent="1">
          <mxGeometry x="640" y="240" width="100" height="40" as="geometry" />
        </mxCell>
        <mxCell id="VpNsW9h_GRBeXpe7Pvj6-16" value="id_zona" style="ellipse;whiteSpace=wrap;html=1;align=center;fontStyle=4;" vertex="1" parent="1">
          <mxGeometry x="540" y="130" width="100" height="40" as="geometry" />
        </mxCell>
        <mxCell id="VpNsW9h_GRBeXpe7Pvj6-19" value="tipo" style="ellipse;whiteSpace=wrap;html=1;align=center;" vertex="1" parent="1">
          <mxGeometry x="900" y="160" width="100" height="40" as="geometry" />
        </mxCell>
        <mxCell id="VpNsW9h_GRBeXpe7Pvj6-20" value="coordenadas" style="ellipse;whiteSpace=wrap;html=1;align=center;" vertex="1" parent="1">
          <mxGeometry x="780" y="130" width="100" height="40" as="geometry" />
        </mxCell>
        <mxCell id="VpNsW9h_GRBeXpe7Pvj6-21" value="latitud" style="ellipse;whiteSpace=wrap;html=1;align=center;" vertex="1" parent="1">
          <mxGeometry x="700" y="30" width="100" height="40" as="geometry" />
        </mxCell>
        <mxCell id="VpNsW9h_GRBeXpe7Pvj6-22" value="longitud" style="ellipse;whiteSpace=wrap;html=1;align=center;" vertex="1" parent="1">
          <mxGeometry x="810" y="30" width="100" height="40" as="geometry" />
        </mxCell>
        <mxCell id="VpNsW9h_GRBeXpe7Pvj6-23" value="" style="endArrow=none;html=1;rounded=0;exitX=0.5;exitY=1;exitDx=0;exitDy=0;entryX=0.5;entryY=0;entryDx=0;entryDy=0;" edge="1" parent="1" source="VpNsW9h_GRBeXpe7Pvj6-16" target="VpNsW9h_GRBeXpe7Pvj6-15">
          <mxGeometry relative="1" as="geometry">
            <mxPoint x="560" y="200" as="sourcePoint" />
            <mxPoint x="420" y="240" as="targetPoint" />
          </mxGeometry>
        </mxCell>
        <mxCell id="VpNsW9h_GRBeXpe7Pvj6-26" value="" style="endArrow=none;html=1;rounded=0;exitX=0.5;exitY=1;exitDx=0;exitDy=0;entryX=0.5;entryY=0;entryDx=0;entryDy=0;" edge="1" parent="1" source="VpNsW9h_GRBeXpe7Pvj6-20" target="VpNsW9h_GRBeXpe7Pvj6-15">
          <mxGeometry relative="1" as="geometry">
            <mxPoint x="770" y="170" as="sourcePoint" />
            <mxPoint x="690" y="230" as="targetPoint" />
          </mxGeometry>
        </mxCell>
        <mxCell id="VpNsW9h_GRBeXpe7Pvj6-27" value="" style="endArrow=none;html=1;rounded=0;exitX=0.5;exitY=1;exitDx=0;exitDy=0;entryX=0.5;entryY=0;entryDx=0;entryDy=0;" edge="1" parent="1" source="VpNsW9h_GRBeXpe7Pvj6-21" target="VpNsW9h_GRBeXpe7Pvj6-20">
          <mxGeometry relative="1" as="geometry">
            <mxPoint x="827" y="80" as="sourcePoint" />
            <mxPoint x="717" y="140" as="targetPoint" />
          </mxGeometry>
        </mxCell>
        <mxCell id="VpNsW9h_GRBeXpe7Pvj6-28" value="" style="endArrow=none;html=1;rounded=0;exitX=0.5;exitY=1;exitDx=0;exitDy=0;entryX=0.5;entryY=0;entryDx=0;entryDy=0;" edge="1" parent="1" source="VpNsW9h_GRBeXpe7Pvj6-22" target="VpNsW9h_GRBeXpe7Pvj6-20">
          <mxGeometry relative="1" as="geometry">
            <mxPoint x="790" y="90" as="sourcePoint" />
            <mxPoint x="830" y="140" as="targetPoint" />
          </mxGeometry>
        </mxCell>
        <mxCell id="VpNsW9h_GRBeXpe7Pvj6-29" value="" style="endArrow=none;html=1;rounded=0;exitX=0.5;exitY=1;exitDx=0;exitDy=0;entryX=0.5;entryY=0;entryDx=0;entryDy=0;" edge="1" parent="1" source="NDJecgB4MkfpGWFh_cor-49" target="VpNsW9h_GRBeXpe7Pvj6-15">
          <mxGeometry relative="1" as="geometry">
            <mxPoint x="660" y="170" as="sourcePoint" />
            <mxPoint x="735" y="300" as="targetPoint" />
          </mxGeometry>
        </mxCell>
        <mxCell id="VpNsW9h_GRBeXpe7Pvj6-30" value="" style="endArrow=none;html=1;rounded=0;exitX=0.5;exitY=1;exitDx=0;exitDy=0;entryX=0.5;entryY=0;entryDx=0;entryDy=0;" edge="1" parent="1" source="VpNsW9h_GRBeXpe7Pvj6-19" target="VpNsW9h_GRBeXpe7Pvj6-15">
          <mxGeometry relative="1" as="geometry">
            <mxPoint x="920" y="220" as="sourcePoint" />
            <mxPoint x="720" y="280" as="targetPoint" />
          </mxGeometry>
        </mxCell>
        <mxCell id="VpNsW9h_GRBeXpe7Pvj6-31" value="PRODUCTO" style="whiteSpace=wrap;html=1;align=center;" vertex="1" parent="1">
          <mxGeometry x="640" y="580" width="100" height="40" as="geometry" />
        </mxCell>
        <mxCell id="VpNsW9h_GRBeXpe7Pvj6-32" value="id_producto" style="ellipse;whiteSpace=wrap;html=1;align=center;fontStyle=4;" vertex="1" parent="1">
          <mxGeometry x="420" y="475" width="100" height="40" as="geometry" />
        </mxCell>
        <mxCell id="VpNsW9h_GRBeXpe7Pvj6-33" value="nombre" style="ellipse;whiteSpace=wrap;html=1;align=center;" vertex="1" parent="1">
          <mxGeometry x="510" y="445" width="90" height="30" as="geometry" />
        </mxCell>
        <mxCell id="VpNsW9h_GRBeXpe7Pvj6-34" value="categoría" style="ellipse;whiteSpace=wrap;html=1;align=center;" vertex="1" parent="1">
          <mxGeometry x="720" y="460" width="100" height="40" as="geometry" />
        </mxCell>
        <mxCell id="VpNsW9h_GRBeXpe7Pvj6-35" value="unidad_medida" style="ellipse;whiteSpace=wrap;html=1;align=center;" vertex="1" parent="1">
          <mxGeometry x="827" y="470" width="100" height="40" as="geometry" />
        </mxCell>
        <mxCell id="VpNsW9h_GRBeXpe7Pvj6-36" value="" style="endArrow=none;html=1;rounded=0;entryX=0.5;entryY=0;entryDx=0;entryDy=0;exitX=0.5;exitY=1;exitDx=0;exitDy=0;" edge="1" parent="1" source="VpNsW9h_GRBeXpe7Pvj6-33" target="VpNsW9h_GRBeXpe7Pvj6-31">
          <mxGeometry relative="1" as="geometry">
            <mxPoint x="640" y="490" as="sourcePoint" />
            <mxPoint x="750" y="600" as="targetPoint" />
          </mxGeometry>
        </mxCell>
        <mxCell id="VpNsW9h_GRBeXpe7Pvj6-37" value="" style="endArrow=none;html=1;rounded=0;entryX=0.5;entryY=0;entryDx=0;entryDy=0;exitX=0.5;exitY=1;exitDx=0;exitDy=0;" edge="1" parent="1" source="VpNsW9h_GRBeXpe7Pvj6-34" target="VpNsW9h_GRBeXpe7Pvj6-31">
          <mxGeometry relative="1" as="geometry">
            <mxPoint x="680" y="510" as="sourcePoint" />
            <mxPoint x="700" y="630" as="targetPoint" />
          </mxGeometry>
        </mxCell>
        <mxCell id="VpNsW9h_GRBeXpe7Pvj6-38" value="" style="endArrow=none;html=1;rounded=0;entryX=0.5;entryY=0;entryDx=0;entryDy=0;exitX=0.5;exitY=1;exitDx=0;exitDy=0;" edge="1" parent="1" source="VpNsW9h_GRBeXpe7Pvj6-35" target="VpNsW9h_GRBeXpe7Pvj6-31">
          <mxGeometry relative="1" as="geometry">
            <mxPoint x="840" y="490" as="sourcePoint" />
            <mxPoint x="740" y="597" as="targetPoint" />
          </mxGeometry>
        </mxCell>
        <mxCell id="VpNsW9h_GRBeXpe7Pvj6-39" value="EMPLEADO" style="whiteSpace=wrap;html=1;align=center;" vertex="1" parent="1">
          <mxGeometry x="1260" y="240" width="100" height="40" as="geometry" />
        </mxCell>
        <mxCell id="VpNsW9h_GRBeXpe7Pvj6-40" value="id_empleado" style="ellipse;whiteSpace=wrap;html=1;align=center;fontStyle=4;" vertex="1" parent="1">
          <mxGeometry x="1120" y="140" width="100" height="40" as="geometry" />
        </mxCell>
        <mxCell id="VpNsW9h_GRBeXpe7Pvj6-42" value="&lt;span style=&quot;border-bottom: 1px dotted&quot;&gt;dni&lt;/span&gt;" style="ellipse;whiteSpace=wrap;html=1;align=center;" vertex="1" parent="1">
          <mxGeometry x="1187.5" y="90" width="100" height="40" as="geometry" />
        </mxCell>
        <mxCell id="VpNsW9h_GRBeXpe7Pvj6-43" value="nombre" style="ellipse;whiteSpace=wrap;html=1;align=center;" vertex="1" parent="1">
          <mxGeometry x="1290" y="70" width="100" height="40" as="geometry" />
        </mxCell>
        <mxCell id="VpNsW9h_GRBeXpe7Pvj6-44" value="apellidos" style="ellipse;whiteSpace=wrap;html=1;align=center;" vertex="1" parent="1">
          <mxGeometry x="1390" y="100" width="100" height="40" as="geometry" />
        </mxCell>
        <mxCell id="VpNsW9h_GRBeXpe7Pvj6-45" value="fecha_alta" style="ellipse;whiteSpace=wrap;html=1;align=center;" vertex="1" parent="1">
          <mxGeometry x="1445" y="150" width="100" height="40" as="geometry" />
        </mxCell>
        <mxCell id="VpNsW9h_GRBeXpe7Pvj6-48" value="" style="endArrow=none;html=1;rounded=0;entryX=0.5;entryY=0;entryDx=0;entryDy=0;exitX=0.5;exitY=1;exitDx=0;exitDy=0;" edge="1" parent="1" source="VpNsW9h_GRBeXpe7Pvj6-40" target="VpNsW9h_GRBeXpe7Pvj6-39">
          <mxGeometry relative="1" as="geometry">
            <mxPoint x="1130" y="150" as="sourcePoint" />
            <mxPoint x="910" y="245" as="targetPoint" />
          </mxGeometry>
        </mxCell>
        <mxCell id="VpNsW9h_GRBeXpe7Pvj6-49" value="" style="endArrow=none;html=1;rounded=0;entryX=0.5;entryY=0;entryDx=0;entryDy=0;exitX=0.5;exitY=1;exitDx=0;exitDy=0;" edge="1" parent="1" source="VpNsW9h_GRBeXpe7Pvj6-42" target="VpNsW9h_GRBeXpe7Pvj6-39">
          <mxGeometry relative="1" as="geometry">
            <mxPoint x="1250" y="190" as="sourcePoint" />
            <mxPoint x="1410" y="304" as="targetPoint" />
          </mxGeometry>
        </mxCell>
        <mxCell id="VpNsW9h_GRBeXpe7Pvj6-50" value="" style="endArrow=none;html=1;rounded=0;entryX=0.5;entryY=0;entryDx=0;entryDy=0;exitX=0.5;exitY=1;exitDx=0;exitDy=0;" edge="1" parent="1" source="VpNsW9h_GRBeXpe7Pvj6-43" target="VpNsW9h_GRBeXpe7Pvj6-39">
          <mxGeometry relative="1" as="geometry">
            <mxPoint x="1290" y="190" as="sourcePoint" />
            <mxPoint x="1330" y="294" as="targetPoint" />
          </mxGeometry>
        </mxCell>
        <mxCell id="VpNsW9h_GRBeXpe7Pvj6-51" value="" style="endArrow=none;html=1;rounded=0;entryX=0.5;entryY=0;entryDx=0;entryDy=0;exitX=0.5;exitY=1;exitDx=0;exitDy=0;" edge="1" parent="1" source="VpNsW9h_GRBeXpe7Pvj6-44" target="VpNsW9h_GRBeXpe7Pvj6-39">
          <mxGeometry relative="1" as="geometry">
            <mxPoint x="1430" y="180" as="sourcePoint" />
            <mxPoint x="1360" y="274" as="targetPoint" />
          </mxGeometry>
        </mxCell>
        <mxCell id="VpNsW9h_GRBeXpe7Pvj6-52" value="" style="endArrow=none;html=1;rounded=0;entryX=0.5;entryY=0;entryDx=0;entryDy=0;exitX=0.5;exitY=1;exitDx=0;exitDy=0;" edge="1" parent="1" source="VpNsW9h_GRBeXpe7Pvj6-45" target="VpNsW9h_GRBeXpe7Pvj6-39">
          <mxGeometry relative="1" as="geometry">
            <mxPoint x="1590" y="190" as="sourcePoint" />
            <mxPoint x="1420" y="264" as="targetPoint" />
          </mxGeometry>
        </mxCell>
        <mxCell id="VpNsW9h_GRBeXpe7Pvj6-53" value="CLIENTE" style="whiteSpace=wrap;html=1;align=center;" vertex="1" parent="1">
          <mxGeometry x="1260" y="860" width="100" height="40" as="geometry" />
        </mxCell>
        <mxCell id="VpNsW9h_GRBeXpe7Pvj6-54" value="id_cliente" style="ellipse;whiteSpace=wrap;html=1;align=center;fontStyle=4;" vertex="1" parent="1">
          <mxGeometry x="990" y="780" width="100" height="40" as="geometry" />
        </mxCell>
        <mxCell id="VpNsW9h_GRBeXpe7Pvj6-56" value="nombre" style="ellipse;whiteSpace=wrap;html=1;align=center;" vertex="1" parent="1">
          <mxGeometry x="990" y="830" width="100" height="40" as="geometry" />
        </mxCell>
        <mxCell id="VpNsW9h_GRBeXpe7Pvj6-58" value="&lt;span style=&quot;border-bottom: 1px dotted&quot;&gt;email&lt;/span&gt;" style="ellipse;whiteSpace=wrap;html=1;align=center;" vertex="1" parent="1">
          <mxGeometry x="980" y="885" width="100" height="40" as="geometry" />
        </mxCell>
        <mxCell id="VpNsW9h_GRBeXpe7Pvj6-59" value="teléfono" style="ellipse;whiteSpace=wrap;html=1;align=center;" vertex="1" parent="1">
          <mxGeometry x="990" y="940" width="100" height="40" as="geometry" />
        </mxCell>
        <mxCell id="VpNsW9h_GRBeXpe7Pvj6-60" value="" style="endArrow=none;html=1;rounded=0;exitX=1;exitY=0.5;exitDx=0;exitDy=0;entryX=0;entryY=0.5;entryDx=0;entryDy=0;" edge="1" parent="1" source="VpNsW9h_GRBeXpe7Pvj6-54" target="VpNsW9h_GRBeXpe7Pvj6-53">
          <mxGeometry relative="1" as="geometry">
            <mxPoint x="932" y="1020" as="sourcePoint" />
            <mxPoint x="1092" y="1020" as="targetPoint" />
          </mxGeometry>
        </mxCell>
        <mxCell id="VpNsW9h_GRBeXpe7Pvj6-61" value="" style="endArrow=none;html=1;rounded=0;exitX=1;exitY=0.5;exitDx=0;exitDy=0;entryX=0;entryY=0.5;entryDx=0;entryDy=0;" edge="1" parent="1" source="VpNsW9h_GRBeXpe7Pvj6-56" target="VpNsW9h_GRBeXpe7Pvj6-53">
          <mxGeometry relative="1" as="geometry">
            <mxPoint x="1032" y="920" as="sourcePoint" />
            <mxPoint x="1230" y="1340" as="targetPoint" />
          </mxGeometry>
        </mxCell>
        <mxCell id="VpNsW9h_GRBeXpe7Pvj6-62" value="" style="endArrow=none;html=1;rounded=0;exitX=1;exitY=0.5;exitDx=0;exitDy=0;entryX=0;entryY=0.5;entryDx=0;entryDy=0;" edge="1" parent="1" source="VpNsW9h_GRBeXpe7Pvj6-58" target="VpNsW9h_GRBeXpe7Pvj6-53">
          <mxGeometry relative="1" as="geometry">
            <mxPoint x="1102" y="940" as="sourcePoint" />
            <mxPoint x="1230" y="1340" as="targetPoint" />
          </mxGeometry>
        </mxCell>
        <mxCell id="VpNsW9h_GRBeXpe7Pvj6-63" value="" style="endArrow=none;html=1;rounded=0;exitX=1;exitY=0.5;exitDx=0;exitDy=0;entryX=0;entryY=0.5;entryDx=0;entryDy=0;" edge="1" parent="1" source="VpNsW9h_GRBeXpe7Pvj6-59" target="VpNsW9h_GRBeXpe7Pvj6-53">
          <mxGeometry relative="1" as="geometry">
            <mxPoint x="1226" y="910" as="sourcePoint" />
            <mxPoint x="1240" y="1340" as="targetPoint" />
          </mxGeometry>
        </mxCell>
        <mxCell id="VpNsW9h_GRBeXpe7Pvj6-66" value="fecha_ingreso" style="ellipse;whiteSpace=wrap;html=1;align=center;" vertex="1" parent="1">
          <mxGeometry x="1530" y="985" width="100" height="40" as="geometry" />
        </mxCell>
        <mxCell id="VpNsW9h_GRBeXpe7Pvj6-67" value="estado" style="ellipse;whiteSpace=wrap;html=1;align=center;" vertex="1" parent="1">
          <mxGeometry x="1530" y="1040" width="100" height="40" as="geometry" />
        </mxCell>
        <mxCell id="VpNsW9h_GRBeXpe7Pvj6-69" value="" style="endArrow=none;html=1;rounded=0;exitX=0;exitY=0.5;exitDx=0;exitDy=0;entryX=1;entryY=0.5;entryDx=0;entryDy=0;" edge="1" parent="1" source="VpNsW9h_GRBeXpe7Pvj6-66" target="NDJecgB4MkfpGWFh_cor-80">
          <mxGeometry relative="1" as="geometry">
            <mxPoint x="1572" y="920" as="sourcePoint" />
            <mxPoint x="1657" y="970" as="targetPoint" />
          </mxGeometry>
        </mxCell>
        <mxCell id="VpNsW9h_GRBeXpe7Pvj6-70" value="" style="endArrow=none;html=1;rounded=0;exitX=0;exitY=0.5;exitDx=0;exitDy=0;entryX=1;entryY=0.5;entryDx=0;entryDy=0;" edge="1" parent="1" source="VpNsW9h_GRBeXpe7Pvj6-67" target="NDJecgB4MkfpGWFh_cor-80">
          <mxGeometry relative="1" as="geometry">
            <mxPoint x="1662" y="910" as="sourcePoint" />
            <mxPoint x="1600" y="1100" as="targetPoint" />
          </mxGeometry>
        </mxCell>
        <mxCell id="VpNsW9h_GRBeXpe7Pvj6-71" value="PEDIDO" style="whiteSpace=wrap;html=1;align=center;" vertex="1" parent="1">
          <mxGeometry x="1260" y="530" width="100" height="40" as="geometry" />
        </mxCell>
        <mxCell id="VpNsW9h_GRBeXpe7Pvj6-72" value="id_pedido" style="ellipse;whiteSpace=wrap;html=1;align=center;fontStyle=4;" vertex="1" parent="1">
          <mxGeometry x="1072" y="475" width="100" height="40" as="geometry" />
        </mxCell>
        <mxCell id="VpNsW9h_GRBeXpe7Pvj6-73" value="fecha" style="ellipse;whiteSpace=wrap;html=1;align=center;" vertex="1" parent="1">
          <mxGeometry x="1060" y="525" width="100" height="40" as="geometry" />
        </mxCell>
        <mxCell id="VpNsW9h_GRBeXpe7Pvj6-74" value="importe_total" style="ellipse;whiteSpace=wrap;html=1;align=center;" vertex="1" parent="1">
          <mxGeometry x="1060" y="590" width="100" height="40" as="geometry" />
        </mxCell>
        <mxCell id="VpNsW9h_GRBeXpe7Pvj6-76" value="" style="endArrow=none;html=1;rounded=0;exitX=1;exitY=0.5;exitDx=0;exitDy=0;entryX=0;entryY=0.5;entryDx=0;entryDy=0;" edge="1" parent="1" source="VpNsW9h_GRBeXpe7Pvj6-72" target="VpNsW9h_GRBeXpe7Pvj6-71">
          <mxGeometry relative="1" as="geometry">
            <mxPoint x="927" y="1331" as="sourcePoint" />
            <mxPoint x="1087" y="1331" as="targetPoint" />
          </mxGeometry>
        </mxCell>
        <mxCell id="VpNsW9h_GRBeXpe7Pvj6-77" value="" style="endArrow=none;html=1;rounded=0;exitX=1;exitY=0.5;exitDx=0;exitDy=0;entryX=0;entryY=0.5;entryDx=0;entryDy=0;" edge="1" parent="1" source="VpNsW9h_GRBeXpe7Pvj6-73" target="VpNsW9h_GRBeXpe7Pvj6-71">
          <mxGeometry relative="1" as="geometry">
            <mxPoint x="997" y="1331" as="sourcePoint" />
            <mxPoint x="1167" y="1411" as="targetPoint" />
          </mxGeometry>
        </mxCell>
        <mxCell id="VpNsW9h_GRBeXpe7Pvj6-78" value="" style="endArrow=none;html=1;rounded=0;exitX=1;exitY=0.5;exitDx=0;exitDy=0;entryX=0;entryY=0.5;entryDx=0;entryDy=0;" edge="1" parent="1" source="VpNsW9h_GRBeXpe7Pvj6-74" target="VpNsW9h_GRBeXpe7Pvj6-71">
          <mxGeometry relative="1" as="geometry">
            <mxPoint x="1037" y="1291" as="sourcePoint" />
            <mxPoint x="1093" y="1392" as="targetPoint" />
          </mxGeometry>
        </mxCell>
        <mxCell id="NDJecgB4MkfpGWFh_cor-1" value="" style="endArrow=none;html=1;rounded=0;exitX=0.5;exitY=1;exitDx=0;exitDy=0;entryX=0.5;entryY=0;entryDx=0;entryDy=0;" edge="1" parent="1" source="VpNsW9h_GRBeXpe7Pvj6-2" target="VpNsW9h_GRBeXpe7Pvj6-1">
          <mxGeometry relative="1" as="geometry">
            <mxPoint x="70" y="107.5" as="sourcePoint" />
            <mxPoint x="200" y="232.5" as="targetPoint" />
          </mxGeometry>
        </mxCell>
        <mxCell id="NDJecgB4MkfpGWFh_cor-16" value="TIENE" style="shape=rhombus;perimeter=rhombusPerimeter;whiteSpace=wrap;html=1;align=center;" vertex="1" parent="1">
          <mxGeometry x="390" y="230" width="120" height="60" as="geometry" />
        </mxCell>
        <mxCell id="NDJecgB4MkfpGWFh_cor-17" value="" style="endArrow=none;html=1;rounded=0;exitX=0;exitY=0.5;exitDx=0;exitDy=0;entryX=1;entryY=0.5;entryDx=0;entryDy=0;" edge="1" parent="1" source="NDJecgB4MkfpGWFh_cor-16" target="VpNsW9h_GRBeXpe7Pvj6-1">
          <mxGeometry relative="1" as="geometry">
            <mxPoint x="440" y="190" as="sourcePoint" />
            <mxPoint x="300" y="260" as="targetPoint" />
          </mxGeometry>
        </mxCell>
        <mxCell id="NDJecgB4MkfpGWFh_cor-18" value="" style="endArrow=none;html=1;rounded=0;exitX=0;exitY=0.5;exitDx=0;exitDy=0;entryX=1;entryY=0.5;entryDx=0;entryDy=0;" edge="1" parent="1">
          <mxGeometry relative="1" as="geometry">
            <mxPoint x="640" y="259.58" as="sourcePoint" />
            <mxPoint x="510" y="259.58" as="targetPoint" />
          </mxGeometry>
        </mxCell>
        <mxCell id="NDJecgB4MkfpGWFh_cor-19" value="(1,N)" style="text;html=1;align=center;verticalAlign=middle;whiteSpace=wrap;rounded=0;" vertex="1" parent="1">
          <mxGeometry x="540" y="230" width="60" height="30" as="geometry" />
        </mxCell>
        <mxCell id="NDJecgB4MkfpGWFh_cor-20" value="(1,1)" style="text;html=1;align=center;verticalAlign=middle;whiteSpace=wrap;rounded=0;" vertex="1" parent="1">
          <mxGeometry x="290" y="230" width="60" height="30" as="geometry" />
        </mxCell>
        <mxCell id="NDJecgB4MkfpGWFh_cor-28" value="BONIFICACIÓN_MENSUAL" style="whiteSpace=wrap;html=1;align=center;" vertex="1" parent="1">
          <mxGeometry x="1275" y="1250" width="170" height="40" as="geometry" />
        </mxCell>
        <mxCell id="NDJecgB4MkfpGWFh_cor-31" value="volumen_compras" style="ellipse;whiteSpace=wrap;html=1;align=center;" vertex="1" parent="1">
          <mxGeometry x="1325" y="1360" width="120" height="30" as="geometry" />
        </mxCell>
        <mxCell id="NDJecgB4MkfpGWFh_cor-32" value="bonificacion_asignada" style="ellipse;whiteSpace=wrap;html=1;align=center;" vertex="1" parent="1">
          <mxGeometry x="1430" y="1335" width="140" height="30" as="geometry" />
        </mxCell>
        <mxCell id="NDJecgB4MkfpGWFh_cor-34" value="" style="endArrow=none;html=1;rounded=0;exitX=0.5;exitY=1;exitDx=0;exitDy=0;entryX=0.5;entryY=1;entryDx=0;entryDy=0;" edge="1" parent="1" source="NDJecgB4MkfpGWFh_cor-38" target="NDJecgB4MkfpGWFh_cor-28">
          <mxGeometry relative="1" as="geometry">
            <mxPoint x="1562" y="1250" as="sourcePoint" />
            <mxPoint x="1737" y="1350" as="targetPoint" />
          </mxGeometry>
        </mxCell>
        <mxCell id="NDJecgB4MkfpGWFh_cor-35" value="" style="endArrow=none;html=1;rounded=0;exitX=0.5;exitY=0;exitDx=0;exitDy=0;entryX=0.5;entryY=1;entryDx=0;entryDy=0;" edge="1" parent="1" source="NDJecgB4MkfpGWFh_cor-31" target="NDJecgB4MkfpGWFh_cor-28">
          <mxGeometry relative="1" as="geometry">
            <mxPoint x="1662" y="1300" as="sourcePoint" />
            <mxPoint x="1682" y="1330" as="targetPoint" />
          </mxGeometry>
        </mxCell>
        <mxCell id="NDJecgB4MkfpGWFh_cor-36" value="" style="endArrow=none;html=1;rounded=0;entryX=0.5;entryY=1;entryDx=0;entryDy=0;exitX=0.5;exitY=0;exitDx=0;exitDy=0;" edge="1" parent="1" source="NDJecgB4MkfpGWFh_cor-32" target="NDJecgB4MkfpGWFh_cor-28">
          <mxGeometry relative="1" as="geometry">
            <mxPoint x="1912" y="1290" as="sourcePoint" />
            <mxPoint x="1732" y="1360" as="targetPoint" />
          </mxGeometry>
        </mxCell>
        <mxCell id="NDJecgB4MkfpGWFh_cor-38" value="anio_mes" style="ellipse;whiteSpace=wrap;html=1;align=center;fontStyle=4;" vertex="1" parent="1">
          <mxGeometry x="1210" y="1330" width="100" height="40" as="geometry" />
        </mxCell>
        <mxCell id="NDJecgB4MkfpGWFh_cor-39" value="TIENE_BONUS" style="shape=rhombus;perimeter=rhombusPerimeter;whiteSpace=wrap;html=1;align=center;" vertex="1" parent="1">
          <mxGeometry x="1300" y="1140" width="120" height="60" as="geometry" />
        </mxCell>
        <mxCell id="NDJecgB4MkfpGWFh_cor-40" value="" style="endArrow=none;html=1;rounded=0;exitX=0.5;exitY=1;exitDx=0;exitDy=0;entryX=0.5;entryY=0;entryDx=0;entryDy=0;" edge="1" parent="1" source="NDJecgB4MkfpGWFh_cor-39" target="NDJecgB4MkfpGWFh_cor-28">
          <mxGeometry relative="1" as="geometry">
            <mxPoint x="1582" y="1270" as="sourcePoint" />
            <mxPoint x="1717" y="1375" as="targetPoint" />
          </mxGeometry>
        </mxCell>
        <mxCell id="NDJecgB4MkfpGWFh_cor-41" value="" style="endArrow=none;html=1;rounded=0;exitX=0.5;exitY=1;exitDx=0;exitDy=0;entryX=0.5;entryY=0;entryDx=0;entryDy=0;" edge="1" parent="1" source="NDJecgB4MkfpGWFh_cor-80" target="NDJecgB4MkfpGWFh_cor-39">
          <mxGeometry relative="1" as="geometry">
            <mxPoint x="1724.5" y="1055" as="sourcePoint" />
            <mxPoint x="1859.5" y="1160" as="targetPoint" />
          </mxGeometry>
        </mxCell>
        <mxCell id="NDJecgB4MkfpGWFh_cor-42" value="(0,N)" style="text;html=1;align=center;verticalAlign=middle;whiteSpace=wrap;rounded=0;" vertex="1" parent="1">
          <mxGeometry x="1370" y="1210" width="60" height="30" as="geometry" />
        </mxCell>
        <mxCell id="NDJecgB4MkfpGWFh_cor-43" value="(1,1)" style="text;html=1;align=center;verticalAlign=middle;whiteSpace=wrap;rounded=0;" vertex="1" parent="1">
          <mxGeometry x="1360" y="1100" width="60" height="30" as="geometry" />
        </mxCell>
        <mxCell id="NDJecgB4MkfpGWFh_cor-44" value="REALIZA" style="shape=rhombus;perimeter=rhombusPerimeter;whiteSpace=wrap;html=1;align=center;" vertex="1" parent="1">
          <mxGeometry x="1250" y="680" width="120" height="60" as="geometry" />
        </mxCell>
        <mxCell id="NDJecgB4MkfpGWFh_cor-45" value="" style="endArrow=none;html=1;rounded=0;exitX=0.5;exitY=0;exitDx=0;exitDy=0;entryX=0.5;entryY=1;entryDx=0;entryDy=0;" edge="1" parent="1" source="VpNsW9h_GRBeXpe7Pvj6-53" target="NDJecgB4MkfpGWFh_cor-44">
          <mxGeometry relative="1" as="geometry">
            <mxPoint x="1152" y="1030" as="sourcePoint" />
            <mxPoint x="1152" y="1120" as="targetPoint" />
          </mxGeometry>
        </mxCell>
        <mxCell id="NDJecgB4MkfpGWFh_cor-46" value="" style="endArrow=none;html=1;rounded=0;exitX=0.5;exitY=0;exitDx=0;exitDy=0;entryX=0.5;entryY=1;entryDx=0;entryDy=0;" edge="1" parent="1" source="NDJecgB4MkfpGWFh_cor-44" target="VpNsW9h_GRBeXpe7Pvj6-71">
          <mxGeometry relative="1" as="geometry">
            <mxPoint x="1082" y="1219" as="sourcePoint" />
            <mxPoint x="1082" y="1309" as="targetPoint" />
          </mxGeometry>
        </mxCell>
        <mxCell id="NDJecgB4MkfpGWFh_cor-47" value="(0,N)" style="text;html=1;align=center;verticalAlign=middle;whiteSpace=wrap;rounded=0;" vertex="1" parent="1">
          <mxGeometry x="1250" y="620" width="60" height="30" as="geometry" />
        </mxCell>
        <mxCell id="NDJecgB4MkfpGWFh_cor-48" value="(1,1)" style="text;html=1;align=center;verticalAlign=middle;whiteSpace=wrap;rounded=0;" vertex="1" parent="1">
          <mxGeometry x="1241" y="790" width="60" height="30" as="geometry" />
        </mxCell>
        <mxCell id="NDJecgB4MkfpGWFh_cor-49" value="&lt;span style=&quot;border-bottom: 1px dotted&quot;&gt;nombre&lt;/span&gt;" style="ellipse;whiteSpace=wrap;html=1;align=center;" vertex="1" parent="1">
          <mxGeometry x="660" y="120" width="100" height="40" as="geometry" />
        </mxCell>
        <mxCell id="NDJecgB4MkfpGWFh_cor-51" value="INVENTARIO" style="shape=rhombus;perimeter=rhombusPerimeter;whiteSpace=wrap;html=1;align=center;" vertex="1" parent="1">
          <mxGeometry x="630" y="380" width="120" height="60" as="geometry" />
        </mxCell>
        <mxCell id="NDJecgB4MkfpGWFh_cor-52" value="" style="endArrow=none;html=1;rounded=0;exitX=0.5;exitY=1;exitDx=0;exitDy=0;entryX=0.5;entryY=0;entryDx=0;entryDy=0;" edge="1" parent="1" source="NDJecgB4MkfpGWFh_cor-51" target="VpNsW9h_GRBeXpe7Pvj6-31">
          <mxGeometry relative="1" as="geometry">
            <mxPoint x="610" y="480" as="sourcePoint" />
            <mxPoint x="670" y="570" as="targetPoint" />
          </mxGeometry>
        </mxCell>
        <mxCell id="NDJecgB4MkfpGWFh_cor-53" value="" style="endArrow=none;html=1;rounded=0;exitX=0.5;exitY=1;exitDx=0;exitDy=0;entryX=0.5;entryY=0;entryDx=0;entryDy=0;" edge="1" parent="1" source="VpNsW9h_GRBeXpe7Pvj6-15" target="NDJecgB4MkfpGWFh_cor-51">
          <mxGeometry relative="1" as="geometry">
            <mxPoint x="720" y="290" as="sourcePoint" />
            <mxPoint x="705" y="435" as="targetPoint" />
          </mxGeometry>
        </mxCell>
        <mxCell id="NDJecgB4MkfpGWFh_cor-54" value="cantidad_disponible" style="ellipse;whiteSpace=wrap;html=1;align=center;" vertex="1" parent="1">
          <mxGeometry x="810" y="370" width="145" height="30" as="geometry" />
        </mxCell>
        <mxCell id="NDJecgB4MkfpGWFh_cor-55" value="fecha_ult_actualizacion" style="ellipse;whiteSpace=wrap;html=1;align=center;" vertex="1" parent="1">
          <mxGeometry x="800" y="410" width="155" height="30" as="geometry" />
        </mxCell>
        <mxCell id="NDJecgB4MkfpGWFh_cor-56" value="" style="endArrow=none;html=1;rounded=0;exitX=0;exitY=0.5;exitDx=0;exitDy=0;entryX=1;entryY=0.5;entryDx=0;entryDy=0;" edge="1" parent="1" source="NDJecgB4MkfpGWFh_cor-54" target="NDJecgB4MkfpGWFh_cor-51">
          <mxGeometry relative="1" as="geometry">
            <mxPoint x="810" y="290" as="sourcePoint" />
            <mxPoint x="750" y="370" as="targetPoint" />
          </mxGeometry>
        </mxCell>
        <mxCell id="NDJecgB4MkfpGWFh_cor-57" value="" style="endArrow=none;html=1;rounded=0;exitX=0;exitY=0.5;exitDx=0;exitDy=0;entryX=1;entryY=0.5;entryDx=0;entryDy=0;" edge="1" parent="1" source="NDJecgB4MkfpGWFh_cor-55" target="NDJecgB4MkfpGWFh_cor-51">
          <mxGeometry relative="1" as="geometry">
            <mxPoint x="835" y="370" as="sourcePoint" />
            <mxPoint x="770" y="430" as="targetPoint" />
          </mxGeometry>
        </mxCell>
        <mxCell id="NDJecgB4MkfpGWFh_cor-58" value="(0,N)" style="text;html=1;align=center;verticalAlign=middle;whiteSpace=wrap;rounded=0;" vertex="1" parent="1">
          <mxGeometry x="630" y="310" width="60" height="30" as="geometry" />
        </mxCell>
        <mxCell id="NDJecgB4MkfpGWFh_cor-59" value="(0,N)" style="text;html=1;align=center;verticalAlign=middle;whiteSpace=wrap;rounded=0;" vertex="1" parent="1">
          <mxGeometry x="630" y="475" width="60" height="30" as="geometry" />
        </mxCell>
        <mxCell id="NDJecgB4MkfpGWFh_cor-60" value="ASIGNADO_A" style="shape=rhombus;perimeter=rhombusPerimeter;whiteSpace=wrap;html=1;align=center;" vertex="1" parent="1">
          <mxGeometry x="990" y="230" width="120" height="60" as="geometry" />
        </mxCell>
        <mxCell id="NDJecgB4MkfpGWFh_cor-61" value="" style="endArrow=none;html=1;rounded=0;exitX=1;exitY=0.5;exitDx=0;exitDy=0;entryX=0;entryY=0.5;entryDx=0;entryDy=0;" edge="1" parent="1" source="VpNsW9h_GRBeXpe7Pvj6-15" target="NDJecgB4MkfpGWFh_cor-60">
          <mxGeometry relative="1" as="geometry">
            <mxPoint x="760" y="260" as="sourcePoint" />
            <mxPoint x="920" y="260" as="targetPoint" />
          </mxGeometry>
        </mxCell>
        <mxCell id="NDJecgB4MkfpGWFh_cor-62" value="" style="endArrow=none;html=1;rounded=0;exitX=1;exitY=0.5;exitDx=0;exitDy=0;entryX=0;entryY=0.5;entryDx=0;entryDy=0;" edge="1" parent="1" source="NDJecgB4MkfpGWFh_cor-60" target="VpNsW9h_GRBeXpe7Pvj6-39">
          <mxGeometry relative="1" as="geometry">
            <mxPoint x="1135" y="340" as="sourcePoint" />
            <mxPoint x="1385" y="340" as="targetPoint" />
          </mxGeometry>
        </mxCell>
        <mxCell id="NDJecgB4MkfpGWFh_cor-63" value="fecha_fin" style="ellipse;whiteSpace=wrap;html=1;align=center;" vertex="1" parent="1">
          <mxGeometry x="1110" y="290" width="100" height="40" as="geometry" />
        </mxCell>
        <mxCell id="NDJecgB4MkfpGWFh_cor-64" value="fecha_inicio" style="ellipse;whiteSpace=wrap;html=1;align=center;" vertex="1" parent="1">
          <mxGeometry x="1010" y="320" width="100" height="40" as="geometry" />
        </mxCell>
        <mxCell id="NDJecgB4MkfpGWFh_cor-65" value="puesto" style="ellipse;whiteSpace=wrap;html=1;align=center;" vertex="1" parent="1">
          <mxGeometry x="905" y="290" width="100" height="40" as="geometry" />
        </mxCell>
        <mxCell id="NDJecgB4MkfpGWFh_cor-66" value="" style="endArrow=none;html=1;rounded=0;exitX=0.5;exitY=1;exitDx=0;exitDy=0;entryX=1;entryY=0.5;entryDx=0;entryDy=0;" edge="1" parent="1" source="NDJecgB4MkfpGWFh_cor-60" target="NDJecgB4MkfpGWFh_cor-65">
          <mxGeometry relative="1" as="geometry">
            <mxPoint x="1050" y="300" as="sourcePoint" />
            <mxPoint x="1160" y="370" as="targetPoint" />
          </mxGeometry>
        </mxCell>
        <mxCell id="NDJecgB4MkfpGWFh_cor-67" value="" style="endArrow=none;html=1;rounded=0;entryX=0.5;entryY=0;entryDx=0;entryDy=0;exitX=0.5;exitY=1;exitDx=0;exitDy=0;" edge="1" parent="1" source="NDJecgB4MkfpGWFh_cor-60" target="NDJecgB4MkfpGWFh_cor-64">
          <mxGeometry relative="1" as="geometry">
            <mxPoint x="1075" y="290" as="sourcePoint" />
            <mxPoint x="1045" y="310" as="targetPoint" />
          </mxGeometry>
        </mxCell>
        <mxCell id="NDJecgB4MkfpGWFh_cor-68" value="" style="endArrow=none;html=1;rounded=0;entryX=0;entryY=0.5;entryDx=0;entryDy=0;" edge="1" parent="1" target="NDJecgB4MkfpGWFh_cor-63">
          <mxGeometry relative="1" as="geometry">
            <mxPoint x="1050" y="290" as="sourcePoint" />
            <mxPoint x="1100" y="320" as="targetPoint" />
          </mxGeometry>
        </mxCell>
        <mxCell id="NDJecgB4MkfpGWFh_cor-69" value="(0,N)" style="text;html=1;align=center;verticalAlign=middle;whiteSpace=wrap;rounded=0;" vertex="1" parent="1">
          <mxGeometry x="840" y="230" width="60" height="30" as="geometry" />
        </mxCell>
        <mxCell id="NDJecgB4MkfpGWFh_cor-70" value="(0,N)" style="text;html=1;align=center;verticalAlign=middle;whiteSpace=wrap;rounded=0;" vertex="1" parent="1">
          <mxGeometry x="1150" y="230" width="60" height="30" as="geometry" />
        </mxCell>
        <mxCell id="NDJecgB4MkfpGWFh_cor-73" value="GESTIONA" style="shape=rhombus;perimeter=rhombusPerimeter;whiteSpace=wrap;html=1;align=center;" vertex="1" parent="1">
          <mxGeometry x="1250" y="385" width="120" height="60" as="geometry" />
        </mxCell>
        <mxCell id="NDJecgB4MkfpGWFh_cor-74" value="" style="endArrow=none;html=1;rounded=0;exitX=0.5;exitY=1;exitDx=0;exitDy=0;entryX=0.5;entryY=0;entryDx=0;entryDy=0;" edge="1" parent="1" source="NDJecgB4MkfpGWFh_cor-73" target="VpNsW9h_GRBeXpe7Pvj6-71">
          <mxGeometry relative="1" as="geometry">
            <mxPoint x="1337" y="470" as="sourcePoint" />
            <mxPoint x="1425" y="525" as="targetPoint" />
          </mxGeometry>
        </mxCell>
        <mxCell id="NDJecgB4MkfpGWFh_cor-75" value="" style="endArrow=none;html=1;rounded=0;exitX=0.5;exitY=1;exitDx=0;exitDy=0;entryX=0.5;entryY=0;entryDx=0;entryDy=0;" edge="1" parent="1" source="VpNsW9h_GRBeXpe7Pvj6-39" target="NDJecgB4MkfpGWFh_cor-73">
          <mxGeometry relative="1" as="geometry">
            <mxPoint x="1300" y="460" as="sourcePoint" />
            <mxPoint x="1388" y="515" as="targetPoint" />
          </mxGeometry>
        </mxCell>
        <mxCell id="NDJecgB4MkfpGWFh_cor-76" value="(0,N)" style="text;html=1;align=center;verticalAlign=middle;whiteSpace=wrap;rounded=0;" vertex="1" parent="1">
          <mxGeometry x="1310" y="465" width="60" height="30" as="geometry" />
        </mxCell>
        <mxCell id="NDJecgB4MkfpGWFh_cor-77" value="(1,1)" style="text;html=1;align=center;verticalAlign=middle;whiteSpace=wrap;rounded=0;" vertex="1" parent="1">
          <mxGeometry x="1310" y="325" width="60" height="30" as="geometry" />
        </mxCell>
        <mxCell id="NDJecgB4MkfpGWFh_cor-80" value="CLIENTE_PLUS" style="whiteSpace=wrap;html=1;align=center;" vertex="1" parent="1">
          <mxGeometry x="1310" y="1040" width="100" height="40" as="geometry" />
        </mxCell>
        <mxCell id="NDJecgB4MkfpGWFh_cor-81" value="" style="triangle;whiteSpace=wrap;html=1;rotation=90;" vertex="1" parent="1">
          <mxGeometry x="1287.5" y="930" width="45" height="95" as="geometry" />
        </mxCell>
        <mxCell id="NDJecgB4MkfpGWFh_cor-82" value="" style="endArrow=none;html=1;rounded=0;exitX=0.5;exitY=1;exitDx=0;exitDy=0;" edge="1" parent="1" source="VpNsW9h_GRBeXpe7Pvj6-53" target="NDJecgB4MkfpGWFh_cor-81">
          <mxGeometry relative="1" as="geometry">
            <mxPoint x="1310" y="1060" as="sourcePoint" />
            <mxPoint x="1470" y="1060" as="targetPoint" />
          </mxGeometry>
        </mxCell>
        <mxCell id="NDJecgB4MkfpGWFh_cor-83" value="(1,1)" style="text;html=1;align=center;verticalAlign=middle;whiteSpace=wrap;rounded=0;" vertex="1" parent="1">
          <mxGeometry x="1250" y="920" width="60" height="30" as="geometry" />
        </mxCell>
        <mxCell id="NDJecgB4MkfpGWFh_cor-84" value="" style="endArrow=none;html=1;rounded=0;exitX=0.5;exitY=0;exitDx=0;exitDy=0;entryX=0.5;entryY=0;entryDx=0;entryDy=0;" edge="1" parent="1" source="NDJecgB4MkfpGWFh_cor-81" target="NDJecgB4MkfpGWFh_cor-80">
          <mxGeometry relative="1" as="geometry">
            <mxPoint x="1330" y="1000" as="sourcePoint" />
            <mxPoint x="1330" y="1055" as="targetPoint" />
          </mxGeometry>
        </mxCell>
        <mxCell id="NDJecgB4MkfpGWFh_cor-88" value="(0,1)" style="text;html=1;align=center;verticalAlign=middle;whiteSpace=wrap;rounded=0;" vertex="1" parent="1">
          <mxGeometry x="1350" y="995" width="60" height="30" as="geometry" />
        </mxCell>
        <mxCell id="NDJecgB4MkfpGWFh_cor-90" value="nivel" style="ellipse;whiteSpace=wrap;html=1;align=center;" vertex="1" parent="1">
          <mxGeometry x="1530" y="1090" width="100" height="40" as="geometry" />
        </mxCell>
        <mxCell id="NDJecgB4MkfpGWFh_cor-91" value="" style="endArrow=none;html=1;rounded=0;exitX=0;exitY=0.5;exitDx=0;exitDy=0;entryX=1;entryY=0.5;entryDx=0;entryDy=0;" edge="1" parent="1" source="NDJecgB4MkfpGWFh_cor-90" target="NDJecgB4MkfpGWFh_cor-80">
          <mxGeometry relative="1" as="geometry">
            <mxPoint x="1600" y="1060" as="sourcePoint" />
            <mxPoint x="1480" y="1060" as="targetPoint" />
          </mxGeometry>
        </mxCell>
        <mxCell id="NDJecgB4MkfpGWFh_cor-92" value="teléfonos" style="ellipse;shape=doubleEllipse;margin=3;whiteSpace=wrap;html=1;align=center;" vertex="1" parent="1">
          <mxGeometry x="10" y="150" width="100" height="40" as="geometry" />
        </mxCell>
        <mxCell id="NDJecgB4MkfpGWFh_cor-93" value="" style="endArrow=none;html=1;rounded=0;exitX=0.5;exitY=1;exitDx=0;exitDy=0;entryX=0.5;entryY=0;entryDx=0;entryDy=0;" edge="1" parent="1" source="NDJecgB4MkfpGWFh_cor-92" target="VpNsW9h_GRBeXpe7Pvj6-1">
          <mxGeometry relative="1" as="geometry">
            <mxPoint x="50" y="200" as="sourcePoint" />
            <mxPoint x="190" y="230" as="targetPoint" />
          </mxGeometry>
        </mxCell>
      </root>
    </mxGraphModel>
  </diagram>
</mxfile>
